<?xml version="1.0" encoding="UTF-8" standalone="no"?>
<!DOCTYPE svg PUBLIC "-//W3C//DTD SVG 1.1//EN"
 "http://www.w3.org/Graphics/SVG/1.1/DTD/svg11.dtd">
<!-- Generated by graphviz version 2.38.0 (20140413.2041)
 -->
<!-- Title: controllers_diagram Pages: 1 -->
<svg width="3381pt" height="1870pt"
 viewBox="0.00 0.00 3380.91 1869.79" xmlns="http://www.w3.org/2000/svg" xmlns:xlink="http://www.w3.org/1999/xlink">
<g id="graph0" class="graph" transform="scale(1 1) rotate(0) translate(1660.3 762.292)">
<title>controllers_diagram</title>
<polygon fill="white" stroke="none" points="-1660.3,1107.5 -1660.3,-762.292 1720.61,-762.292 1720.61,1107.5 -1660.3,1107.5"/>
<!-- _diagram_info -->
<g id="node1" class="node"><title>_diagram_info</title>
<text text-anchor="start" x="560.312" y="1044.9" font-family="Times,serif" font-size="13.00">Controllers diagram</text>
<text text-anchor="start" x="560.312" y="1057.9" font-family="Times,serif" font-size="13.00">Date: Aug 17 2015 &#45; 10:18</text>
<text text-anchor="start" x="560.312" y="1070.9" font-family="Times,serif" font-size="13.00">Migration version: 20150810082732</text>
<text text-anchor="start" x="560.312" y="1083.9" font-family="Times,serif" font-size="13.00">Generated by RailRoady 1.1.2</text>
<text text-anchor="start" x="560.312" y="1096.9" font-family="Times,serif" font-size="13.00">http://railroady.prestonlee.com</text>
</g>
<!-- Api::ArchivesController -->
<g id="node2" class="node"><title>Api::ArchivesController</title>
<ellipse fill="none" stroke="black" cx="-1489.59" cy="774.489" rx="96.619" ry="18"/>
<text text-anchor="middle" x="-1489.59" y="778.689" font-family="Times,serif" font-size="14.00">Api::ArchivesController</text>
</g>
<!-- Api::CategoriesController -->
<g id="node3" class="node"><title>Api::CategoriesController</title>
<ellipse fill="none" stroke="black" cx="467.27" cy="240.813" rx="102.407" ry="18"/>
<text text-anchor="middle" x="467.27" y="245.013" font-family="Times,serif" font-size="14.00">Api::CategoriesController</text>
</g>
<!-- Api::ContractItemsController -->
<g id="node4" class="node"><title>Api::ContractItemsController</title>
<ellipse fill="none" stroke="black" cx="-115.912" cy="901.776" rx="114.969" ry="18"/>
<text text-anchor="middle" x="-115.912" y="905.976" font-family="Times,serif" font-size="14.00">Api::ContractItemsController</text>
</g>
<!-- Api::ContractsController -->
<g id="node5" class="node"><title>Api::ContractsController</title>
<ellipse fill="none" stroke="black" cx="-472.006" cy="-684.527" rx="98.5571" ry="18"/>
<text text-anchor="middle" x="-472.006" y="-680.327" font-family="Times,serif" font-size="14.00">Api::ContractsController</text>
</g>
<!-- Api::CsrfController -->
<g id="node6" class="node"><title>Api::CsrfController</title>
<ellipse fill="none" stroke="black" cx="268.755" cy="151.429" rx="79.7316" ry="18"/>
<text text-anchor="middle" x="268.755" y="155.629" font-family="Times,serif" font-size="14.00">Api::CsrfController</text>
</g>
<!-- Api::DriversController -->
<g id="node7" class="node"><title>Api::DriversController</title>
<ellipse fill="none" stroke="black" cx="-613.865" cy="100.728" rx="91.3153" ry="18"/>
<text text-anchor="middle" x="-613.865" y="104.928" font-family="Times,serif" font-size="14.00">Api::DriversController</text>
</g>
<!-- Api::EmployeesController -->
<g id="node8" class="node"><title>Api::EmployeesController</title>
<ellipse fill="none" stroke="black" cx="-854.555" cy="860.268" rx="103.861" ry="18"/>
<text text-anchor="middle" x="-854.555" y="864.468" font-family="Times,serif" font-size="14.00">Api::EmployeesController</text>
</g>
<!-- Api::EmployersController -->
<g id="node9" class="node"><title>Api::EmployersController</title>
<ellipse fill="none" stroke="black" cx="1035.97" cy="348.227" rx="102.901" ry="18"/>
<text text-anchor="middle" x="1035.97" y="352.427" font-family="Times,serif" font-size="14.00">Api::EmployersController</text>
</g>
<!-- Api::GovernmentAgenciesController -->
<g id="node10" class="node"><title>Api::GovernmentAgenciesController</title>
<ellipse fill="none" stroke="black" cx="28.6385" cy="530.806" rx="141.989" ry="18"/>
<text text-anchor="middle" x="28.6385" y="535.006" font-family="Times,serif" font-size="14.00">Api::GovernmentAgenciesController</text>
</g>
<!-- Api::IncidentalItemsController -->
<g id="node11" class="node"><title>Api::IncidentalItemsController</title>
<ellipse fill="none" stroke="black" cx="513.316" cy="888.45" rx="119.78" ry="18"/>
<text text-anchor="middle" x="513.316" y="892.65" font-family="Times,serif" font-size="14.00">Api::IncidentalItemsController</text>
</g>
<!-- Api::IncidentalQuotesController -->
<g id="node12" class="node"><title>Api::IncidentalQuotesController</title>
<ellipse fill="none" stroke="black" cx="321.411" cy="500.23" rx="125.092" ry="18"/>
<text text-anchor="middle" x="321.411" y="504.43" font-family="Times,serif" font-size="14.00">Api::IncidentalQuotesController</text>
</g>
<!-- Api::ItemLocationPricesController -->
<g id="node13" class="node"><title>Api::ItemLocationPricesController</title>
<ellipse fill="none" stroke="black" cx="-1522.42" cy="99.9551" rx="133.77" ry="18"/>
<text text-anchor="middle" x="-1522.42" y="104.155" font-family="Times,serif" font-size="14.00">Api::ItemLocationPricesController</text>
</g>
<!-- Api::ItemPricesController -->
<g id="node14" class="node"><title>Api::ItemPricesController</title>
<ellipse fill="none" stroke="black" cx="1614.16" cy="106.225" rx="102.407" ry="18"/>
<text text-anchor="middle" x="1614.16" y="110.425" font-family="Times,serif" font-size="14.00">Api::ItemPricesController</text>
</g>
<!-- Api::ItemsController -->
<g id="node15" class="node"><title>Api::ItemsController</title>
<ellipse fill="none" stroke="black" cx="720.812" cy="100.687" rx="84.0668" ry="18"/>
<text text-anchor="middle" x="720.812" y="104.887" font-family="Times,serif" font-size="14.00">Api::ItemsController</text>
</g>
<!-- Api::LocationsController -->
<g id="node16" class="node"><title>Api::LocationsController</title>
<ellipse fill="none" stroke="black" cx="60.7919" cy="-589.559" rx="99.5175" ry="18"/>
<text text-anchor="middle" x="60.7919" y="-585.359" font-family="Times,serif" font-size="14.00">Api::LocationsController</text>
</g>
<!-- Api::LogreqItemsController -->
<g id="node17" class="node"><title>Api::LogreqItemsController</title>
<ellipse fill="none" stroke="black" cx="648.509" cy="473.297" rx="109.641" ry="18"/>
<text text-anchor="middle" x="648.509" y="477.497" font-family="Times,serif" font-size="14.00">Api::LogreqItemsController</text>
</g>
<!-- Api::LogreqResponsesController -->
<g id="node18" class="node"><title>Api::LogreqResponsesController</title>
<ellipse fill="none" stroke="black" cx="937.298" cy="866.139" rx="127.523" ry="18"/>
<text text-anchor="middle" x="937.298" y="870.339" font-family="Times,serif" font-size="14.00">Api::LogreqResponsesController</text>
</g>
<!-- Api::LogreqsController -->
<g id="node19" class="node"><title>Api::LogreqsController</title>
<ellipse fill="none" stroke="black" cx="-870.803" cy="-665.173" rx="93.7292" ry="18"/>
<text text-anchor="middle" x="-870.803" y="-660.973" font-family="Times,serif" font-size="14.00">Api::LogreqsController</text>
</g>
<!-- Api::NavyTypesController -->
<g id="node20" class="node"><title>Api::NavyTypesController</title>
<ellipse fill="none" stroke="black" cx="-1494.46" cy="-577.46" rx="104.571" ry="18"/>
<text text-anchor="middle" x="-1494.46" y="-573.26" font-family="Times,serif" font-size="14.00">Api::NavyTypesController</text>
</g>
<!-- Api::PrepservicesController -->
<g id="node21" class="node"><title>Api::PrepservicesController</title>
<ellipse fill="none" stroke="black" cx="-354.897" cy="-37.1533" rx="109.156" ry="18"/>
<text text-anchor="middle" x="-354.897" y="-32.9533" font-family="Times,serif" font-size="14.00">Api::PrepservicesController</text>
</g>
<!-- Api::PrincipalsController -->
<g id="node22" class="node"><title>Api::PrincipalsController</title>
<ellipse fill="none" stroke="black" cx="-99.9672" cy="247.465" rx="100.011" ry="18"/>
<text text-anchor="middle" x="-99.9672" y="251.665" font-family="Times,serif" font-size="14.00">Api::PrincipalsController</text>
</g>
<!-- Api::PurchaseOrderItemsController -->
<g id="node23" class="node"><title>Api::PurchaseOrderItemsController</title>
<ellipse fill="none" stroke="black" cx="-555.152" cy="453.927" rx="136.66" ry="18"/>
<text text-anchor="middle" x="-555.152" y="458.127" font-family="Times,serif" font-size="14.00">Api::PurchaseOrderItemsController</text>
</g>
<!-- Api::PurchaseOrdersController -->
<g id="node24" class="node"><title>Api::PurchaseOrdersController</title>
<ellipse fill="none" stroke="black" cx="330.676" cy="-322.935" rx="120.749" ry="18"/>
<text text-anchor="middle" x="330.676" y="-318.735" font-family="Times,serif" font-size="14.00">Api::PurchaseOrdersController</text>
</g>
<!-- Api::QualityQuestionnairesController -->
<g id="node25" class="node"><title>Api::QualityQuestionnairesController</title>
<ellipse fill="none" stroke="black" cx="585.017" cy="-677.149" rx="144.42" ry="18"/>
<text text-anchor="middle" x="585.017" y="-672.949" font-family="Times,serif" font-size="14.00">Api::QualityQuestionnairesController</text>
</g>
<!-- Api::RfqItemsController -->
<g id="node26" class="node"><title>Api::RfqItemsController</title>
<ellipse fill="none" stroke="black" cx="-162.937" cy="-728.098" rx="97.5967" ry="18"/>
<text text-anchor="middle" x="-162.937" y="-723.898" font-family="Times,serif" font-size="14.00">Api::RfqItemsController</text>
</g>
<!-- Api::RfqSupplierItemsController -->
<g id="node27" class="node"><title>Api::RfqSupplierItemsController</title>
<ellipse fill="none" stroke="black" cx="189.037" cy="895.064" rx="127.532" ry="18"/>
<text text-anchor="middle" x="189.037" y="899.264" font-family="Times,serif" font-size="14.00">Api::RfqSupplierItemsController</text>
</g>
<!-- Api::RfqsController -->
<g id="node28" class="node"><title>Api::RfqsController</title>
<ellipse fill="none" stroke="black" cx="973.646" cy="-664.911" rx="81.1853" ry="18"/>
<text text-anchor="middle" x="973.646" y="-660.711" font-family="Times,serif" font-size="14.00">Api::RfqsController</text>
</g>
<!-- Api::RoleManagementsController -->
<g id="node29" class="node"><title>Api::RoleManagementsController</title>
<ellipse fill="none" stroke="black" cx="-332.235" cy="216.233" rx="130.889" ry="18"/>
<text text-anchor="middle" x="-332.235" y="220.433" font-family="Times,serif" font-size="14.00">Api::RoleManagementsController</text>
</g>
<!-- Api::RolesController -->
<g id="node30" class="node"><title>Api::RolesController</title>
<ellipse fill="none" stroke="black" cx="-247.133" cy="503.396" rx="84.56" ry="18"/>
<text text-anchor="middle" x="-247.133" y="507.596" font-family="Times,serif" font-size="14.00">Api::RolesController</text>
</g>
<!-- Api::ServicesController -->
<g id="node31" class="node"><title>Api::ServicesController</title>
<ellipse fill="none" stroke="black" cx="1577.85" cy="777.803" rx="94.6896" ry="18"/>
<text text-anchor="middle" x="1577.85" y="782.003" font-family="Times,serif" font-size="14.00">Api::ServicesController</text>
</g>
<!-- Api::ShipArrivalsController -->
<g id="node32" class="node"><title>Api::ShipArrivalsController</title>
<ellipse fill="none" stroke="black" cx="31.6418" cy="-267.458" rx="109.667" ry="18"/>
<text text-anchor="middle" x="31.6418" y="-263.258" font-family="Times,serif" font-size="14.00">Api::ShipArrivalsController</text>
</g>
<!-- Api::SubCategoriesController -->
<g id="node33" class="node"><title>Api::SubCategoriesController</title>
<ellipse fill="none" stroke="black" cx="448.352" cy="-34.6329" rx="116.431" ry="18"/>
<text text-anchor="middle" x="448.352" y="-30.4329" font-family="Times,serif" font-size="14.00">Api::SubCategoriesController</text>
</g>
<!-- Api::SupplierCategoriesController -->
<g id="node34" class="node"><title>Api::SupplierCategoriesController</title>
<ellipse fill="none" stroke="black" cx="-440.6" cy="884.438" rx="132.343" ry="18"/>
<text text-anchor="middle" x="-440.6" y="888.638" font-family="Times,serif" font-size="14.00">Api::SupplierCategoriesController</text>
</g>
<!-- Api::SupplierItemsController -->
<g id="node35" class="node"><title>Api::SupplierItemsController</title>
<ellipse fill="none" stroke="black" cx="-125.834" cy="-26.1559" rx="114.002" ry="18"/>
<text text-anchor="middle" x="-125.834" y="-21.9559" font-family="Times,serif" font-size="14.00">Api::SupplierItemsController</text>
</g>
<!-- Api::SupplierPricingDetailsController -->
<g id="node36" class="node"><title>Api::SupplierPricingDetailsController</title>
<ellipse fill="none" stroke="black" cx="659.653" cy="-257.424" rx="145.397" ry="18"/>
<text text-anchor="middle" x="659.653" y="-253.224" font-family="Times,serif" font-size="14.00">Api::SupplierPricingDetailsController</text>
</g>
<!-- Api::SuppliersController -->
<g id="node37" class="node"><title>Api::SuppliersController</title>
<ellipse fill="none" stroke="black" cx="125.571" cy="298.428" rx="98.0898" ry="18"/>
<text text-anchor="middle" x="125.571" y="302.628" font-family="Times,serif" font-size="14.00">Api::SuppliersController</text>
</g>
<!-- Api::ToolsController -->
<g id="node38" class="node"><title>Api::ToolsController</title>
<ellipse fill="none" stroke="black" cx="203.393" cy="-82.4004" rx="84.3247" ry="18"/>
<text text-anchor="middle" x="203.393" y="-78.2004" font-family="Times,serif" font-size="14.00">Api::ToolsController</text>
</g>
<!-- Api::UsersController -->
<g id="node39" class="node"><title>Api::UsersController</title>
<ellipse fill="none" stroke="black" cx="281.122" cy="-740.292" rx="84.5514" ry="18"/>
<text text-anchor="middle" x="281.122" y="-736.092" font-family="Times,serif" font-size="14.00">Api::UsersController</text>
</g>
<!-- Api::VehiclesController -->
<g id="node40" class="node"><title>Api::VehiclesController</title>
<ellipse fill="none" stroke="black" cx="-946.131" cy="-140.005" rx="94.6896" ry="18"/>
<text text-anchor="middle" x="-946.131" y="-135.805" font-family="Times,serif" font-size="14.00">Api::VehiclesController</text>
</g>
<!-- Api::VesselClassesController -->
<g id="node41" class="node"><title>Api::VesselClassesController</title>
<ellipse fill="none" stroke="black" cx="-943.038" cy="340.467" rx="113.526" ry="18"/>
<text text-anchor="middle" x="-943.038" y="344.667" font-family="Times,serif" font-size="14.00">Api::VesselClassesController</text>
</g>
<!-- Api::VesselTypesController -->
<g id="node42" class="node"><title>Api::VesselTypesController</title>
<ellipse fill="none" stroke="black" cx="-239.062" cy="-310.962" rx="108.454" ry="18"/>
<text text-anchor="middle" x="-239.062" y="-306.762" font-family="Times,serif" font-size="14.00">Api::VesselTypesController</text>
</g>
<!-- Api::VesselsController -->
<g id="node43" class="node"><title>Api::VesselsController</title>
<ellipse fill="none" stroke="black" cx="-563.417" cy="-261.74" rx="90.8481" ry="18"/>
<text text-anchor="middle" x="-563.417" y="-257.54" font-family="Times,serif" font-size="14.00">Api::VesselsController</text>
</g>
<!-- ApplicationController -->
<g id="node44" class="node"><title>ApplicationController</title>
<ellipse fill="none" stroke="black" cx="54.0302" cy="64.7702" rx="88.417" ry="18"/>
<text text-anchor="middle" x="54.0302" y="68.9702" font-family="Times,serif" font-size="14.00">ApplicationController</text>
</g>
<!-- ApplicationController&#45;&gt;Api::ArchivesController -->
<g id="edge1" class="edge"><title>ApplicationController&#45;&gt;Api::ArchivesController</title>
<path fill="none" stroke="black" d="M27.6404,82.0647C-17.7749,111.471 -114.091,172.283 -199.693,216.109 -675.656,459.787 -1281.87,695.414 -1446.64,758.238"/>
</g>
<!-- ApplicationController&#45;&gt;Api::CategoriesController -->
<g id="edge2" class="edge"><title>ApplicationController&#45;&gt;Api::CategoriesController</title>
<path fill="none" stroke="black" d="M79.7764,82.215C106.4,100.095 149.318,128.475 187.292,151.591 197.915,158.057 200.181,160.542 211.629,165.402 275.305,192.438 351.793,213.615 404.413,226.555"/>
</g>
<!-- ApplicationController&#45;&gt;Api::ContractItemsController -->
<g id="edge3" class="edge"><title>ApplicationController&#45;&gt;Api::ContractItemsController</title>
<path fill="none" stroke="black" d="M49.5438,82.8552C41.1971,115.876 22.2489,187.997 1.63592,247.336 -43.0777,376.054 -88.1304,397.352 -114.699,530.999 -141.118,663.9 -124.91,828.931 -118.314,883.396"/>
</g>
<!-- ApplicationController&#45;&gt;Api::ContractsController -->
<g id="edge4" class="edge"><title>ApplicationController&#45;&gt;Api::ContractsController</title>
<path fill="none" stroke="black" d="M47.3288,46.5528C26.2324,-9.59136 -42.5857,-183.848 -129.235,-311.014 -232.815,-463.027 -395.732,-615.785 -452.062,-666.752"/>
</g>
<!-- ApplicationController&#45;&gt;Api::CsrfController -->
<g id="edge5" class="edge"><title>ApplicationController&#45;&gt;Api::CsrfController</title>
<path fill="none" stroke="black" d="M93.9151,80.8669C132.726,96.53 191.32,120.177 229.808,135.71"/>
</g>
<!-- ApplicationController&#45;&gt;Api::DriversController -->
<g id="edge6" class="edge"><title>ApplicationController&#45;&gt;Api::DriversController</title>
<path fill="none" stroke="black" d="M-31.5775,69.3791C-158.912,76.2345 -396.992,89.0521 -525.758,95.9845"/>
</g>
<!-- ApplicationController&#45;&gt;Api::EmployeesController -->
<g id="edge7" class="edge"><title>ApplicationController&#45;&gt;Api::EmployeesController</title>
<path fill="none" stroke="black" d="M27.3544,82.0055C-20.1802,113.115 -122.009,181.571 -201.57,247.594 -303.523,332.198 -320.355,362.998 -416.722,453.912 -577.399,605.494 -773.801,786.144 -835.246,842.555"/>
</g>
<!-- ApplicationController&#45;&gt;Api::EmployersController -->
<g id="edge8" class="edge"><title>ApplicationController&#45;&gt;Api::EmployersController</title>
<path fill="none" stroke="black" d="M108.823,78.9512C163.812,93.293 250.885,116.303 325.882,137.455 573.725,207.357 868.317,296.867 984.871,332.538"/>
</g>
<!-- ApplicationController&#45;&gt;Api::GovernmentAgenciesController -->
<g id="edge9" class="edge"><title>ApplicationController&#45;&gt;Api::GovernmentAgenciesController</title>
<path fill="none" stroke="black" d="M51.0287,82.8811C44.7173,122.061 30.294,217.68 25.9265,298.477 21.6155,378.229 25.5954,473.595 27.6201,512.714"/>
</g>
<!-- ApplicationController&#45;&gt;Api::IncidentalItemsController -->
<g id="edge10" class="edge"><title>ApplicationController&#45;&gt;Api::IncidentalItemsController</title>
<path fill="none" stroke="black" d="M77.5831,82.4559C147.415,136.33 354.29,306.586 448.057,500.191 511.518,631.221 514.553,812.992 513.782,870.358"/>
</g>
<!-- ApplicationController&#45;&gt;Api::IncidentalQuotesController -->
<g id="edge11" class="edge"><title>ApplicationController&#45;&gt;Api::IncidentalQuotesController</title>
<path fill="none" stroke="black" d="M69.0215,82.726C100.426,120.846 174.412,213.346 225.216,298.378 263.942,363.194 299.351,446.038 314.129,482.101"/>
</g>
<!-- ApplicationController&#45;&gt;Api::ItemLocationPricesController -->
<g id="edge12" class="edge"><title>ApplicationController&#45;&gt;Api::ItemLocationPricesController</title>
<path fill="none" stroke="black" d="M-33.8208,66.7309C-296.458,72.5928 -1076.81,90.0095 -1390.08,97.0015"/>
</g>
<!-- ApplicationController&#45;&gt;Api::ItemPricesController -->
<g id="edge13" class="edge"><title>ApplicationController&#45;&gt;Api::ItemPricesController</title>
<path fill="none" stroke="black" d="M141.868,66.8201C269.312,69.8174 512.936,75.6336 720.254,81.0874 1007.76,88.6507 1347.25,98.431 1512.95,103.259"/>
</g>
<!-- ApplicationController&#45;&gt;Api::ItemsController -->
<g id="edge14" class="edge"><title>ApplicationController&#45;&gt;Api::ItemsController</title>
<path fill="none" stroke="black" d="M139.495,69.3738C268.639,76.3303 511.884,89.4329 638.899,96.2747"/>
</g>
<!-- ApplicationController&#45;&gt;Api::LocationsController -->
<g id="edge15" class="edge"><title>ApplicationController&#45;&gt;Api::LocationsController</title>
<path fill="none" stroke="black" d="M62.4889,46.4969C84.579,-2.93333 142.353,-143.889 143.075,-267.515 143.77,-386.677 89.8048,-523.141 68.9093,-571.46"/>
</g>
<!-- ApplicationController&#45;&gt;Api::LogreqItemsController -->
<g id="edge16" class="edge"><title>ApplicationController&#45;&gt;Api::LogreqItemsController</title>
<path fill="none" stroke="black" d="M79.1945,82.0631C176.212,148.734 525.404,388.699 623.006,455.771"/>
</g>
<!-- ApplicationController&#45;&gt;Api::LogreqResponsesController -->
<g id="edge17" class="edge"><title>ApplicationController&#45;&gt;Api::LogreqResponsesController</title>
<path fill="none" stroke="black" d="M73.7169,82.6315C191.315,189.325 799.834,741.421 917.564,848.235"/>
</g>
<!-- ApplicationController&#45;&gt;Api::LogreqsController -->
<g id="edge18" class="edge"><title>ApplicationController&#45;&gt;Api::LogreqsController</title>
<path fill="none" stroke="black" d="M43.7418,46.7225C32.1884,27.3676 12.1381,-3.64158 -9.98923,-26.3515 -157.072,-177.307 -717.741,-561.218 -845.004,-647.693"/>
</g>
<!-- ApplicationController&#45;&gt;Api::NavyTypesController -->
<g id="edge19" class="edge"><title>ApplicationController&#45;&gt;Api::NavyTypesController</title>
<path fill="none" stroke="black" d="M-33.6177,62.3779C-101.074,55.5416 -191.064,34.6173 -241.679,-25.9603 -244.98,-29.9105 -240.731,-33.3143 -243.973,-37.313 -328.067,-141.049 -1237.26,-482.23 -1450.08,-561.091"/>
</g>
<!-- ApplicationController&#45;&gt;Api::PrepservicesController -->
<g id="edge20" class="edge"><title>ApplicationController&#45;&gt;Api::PrepservicesController</title>
<path fill="none" stroke="black" d="M-1.97197,50.8119C-78.6404,31.7026 -215.733,-2.46707 -294.59,-22.122"/>
</g>
<!-- ApplicationController&#45;&gt;Api::PrincipalsController -->
<g id="edge21" class="edge"><title>ApplicationController&#45;&gt;Api::PrincipalsController</title>
<path fill="none" stroke="black" d="M38.9839,82.6204C9.54318,117.547 -55.3701,194.557 -84.8598,229.543"/>
</g>
<!-- ApplicationController&#45;&gt;Api::PurchaseOrderItemsController -->
<g id="edge22" class="edge"><title>ApplicationController&#45;&gt;Api::PurchaseOrderItemsController</title>
<path fill="none" stroke="black" d="M27.0684,81.9939C-73.4419,146.202 -425.746,371.26 -527.462,436.238"/>
</g>
<!-- ApplicationController&#45;&gt;Api::PurchaseOrdersController -->
<g id="edge23" class="edge"><title>ApplicationController&#45;&gt;Api::PurchaseOrdersController</title>
<path fill="none" stroke="black" d="M59.7784,46.6736C69.3327,17.9987 90.1789,-39.0501 117.635,-82.2228 176.481,-174.757 270.508,-267.058 311.037,-304.965"/>
</g>
<!-- ApplicationController&#45;&gt;Api::QualityQuestionnairesController -->
<g id="edge24" class="edge"><title>ApplicationController&#45;&gt;Api::QualityQuestionnairesController</title>
<path fill="none" stroke="black" d="M58.2891,46.4301C72.3861,-11.6672 121.64,-195.323 208.452,-322.899 312.472,-475.766 492.919,-611.997 559.438,-659.381"/>
</g>
<!-- ApplicationController&#45;&gt;Api::RfqItemsController -->
<g id="edge25" class="edge"><title>ApplicationController&#45;&gt;Api::RfqItemsController</title>
<path fill="none" stroke="black" d="M45.1184,46.5113C21.356,-2.8819 -44.1299,-143.744 -79.791,-267.402 -128.322,-435.689 -154.066,-647.108 -160.996,-709.791"/>
</g>
<!-- ApplicationController&#45;&gt;Api::RfqSupplierItemsController -->
<g id="edge26" class="edge"><title>ApplicationController&#45;&gt;Api::RfqSupplierItemsController</title>
<path fill="none" stroke="black" d="M47.723,82.866C34.837,122.411 8.14837,219.329 25.9265,298.477 52.6403,417.406 135.467,414.316 171.976,530.613 212.006,658.129 197.639,823.027 191.352,877.059"/>
</g>
<!-- ApplicationController&#45;&gt;Api::RfqsController -->
<g id="edge27" class="edge"><title>ApplicationController&#45;&gt;Api::RfqsController</title>
<path fill="none" stroke="black" d="M84.2592,47.7266C129.917,21.5665 218.625,-30.8992 289.152,-82.578 431.522,-186.9 856.888,-561.675 953.83,-647.372"/>
</g>
<!-- ApplicationController&#45;&gt;Api::RoleManagementsController -->
<g id="edge28" class="edge"><title>ApplicationController&#45;&gt;Api::RoleManagementsController</title>
<path fill="none" stroke="black" d="M13.0587,80.8359C-60.3339,109.615 -213.563,169.699 -288.742,199.178"/>
</g>
<!-- ApplicationController&#45;&gt;Api::RolesController -->
<g id="edge29" class="edge"><title>ApplicationController&#45;&gt;Api::RolesController</title>
<path fill="none" stroke="black" d="M51.7957,83.0252C46.9801,117.254 33.3806,192.558 1.63592,247.336 -59.7409,353.248 -174.48,448.145 -223.714,485.985"/>
</g>
<!-- ApplicationController&#45;&gt;Api::ServicesController -->
<g id="edge30" class="edge"><title>ApplicationController&#45;&gt;Api::ServicesController</title>
<path fill="none" stroke="black" d="M79.7764,82.215C106.4,100.095 149.318,128.475 187.292,151.591 248.957,189.128 357.111,238.02 363.218,240.909 820.681,457.324 1386.63,697.331 1538.72,761.371"/>
</g>
<!-- ApplicationController&#45;&gt;Api::ShipArrivalsController -->
<g id="edge31" class="edge"><title>ApplicationController&#45;&gt;Api::ShipArrivalsController</title>
<path fill="none" stroke="black" d="M52.7946,46.4349C48.8803,-11.6505 36.7826,-191.173 32.8736,-249.18"/>
</g>
<!-- ApplicationController&#45;&gt;Api::SubCategoriesController -->
<g id="edge32" class="edge"><title>ApplicationController&#45;&gt;Api::SubCategoriesController</title>
<path fill="none" stroke="black" d="M109.691,50.739C183.039,32.249 311.609,-0.161818 387.473,-19.2861"/>
</g>
<!-- ApplicationController&#45;&gt;Api::SupplierCategoriesController -->
<g id="edge33" class="edge"><title>ApplicationController&#45;&gt;Api::SupplierCategoriesController</title>
<path fill="none" stroke="black" d="M50.6051,82.9919C43.9112,116.537 27.452,189.888 1.63592,247.336 -119.781,517.524 -359.115,793.842 -424.027,866.214"/>
</g>
<!-- ApplicationController&#45;&gt;Api::SupplierItemsController -->
<g id="edge34" class="edge"><title>ApplicationController&#45;&gt;Api::SupplierItemsController</title>
<path fill="none" stroke="black" d="M20.6206,47.8808C-11.3811,31.7031 -59.4408,7.40767 -91.6865,-8.8934"/>
</g>
<!-- ApplicationController&#45;&gt;Api::SupplierPricingDetailsController -->
<g id="edge35" class="edge"><title>ApplicationController&#45;&gt;Api::SupplierPricingDetailsController</title>
<path fill="none" stroke="black" d="M85.7384,47.9013C189.784,-7.45152 520.192,-183.23 626.418,-239.743"/>
</g>
<!-- ApplicationController&#45;&gt;Api::SuppliersController -->
<g id="edge36" class="edge"><title>ApplicationController&#45;&gt;Api::SuppliersController</title>
<path fill="none" stroke="black" d="M59.6439,83.1049C73.0174,126.784 106.636,236.585 119.983,280.178"/>
</g>
<!-- ApplicationController&#45;&gt;Api::ToolsController -->
<g id="edge37" class="edge"><title>ApplicationController&#45;&gt;Api::ToolsController</title>
<path fill="none" stroke="black" d="M72.0469,47.018C100.755,18.7311 156.564,-36.2588 185.313,-64.5852"/>
</g>
<!-- ApplicationController&#45;&gt;Api::UsersController -->
<g id="edge38" class="edge"><title>ApplicationController&#45;&gt;Api::UsersController</title>
<path fill="none" stroke="black" d="M59.2,46.4427C89.6687,-61.5714 245.514,-614.057 275.96,-721.993"/>
</g>
<!-- ApplicationController&#45;&gt;Api::VehiclesController -->
<g id="edge39" class="edge"><title>ApplicationController&#45;&gt;Api::VehiclesController</title>
<path fill="none" stroke="black" d="M-14.6702,53.3573C-109.099,37.4423 -284.193,7.11394 -432.693,-23.1815 -598.401,-56.9874 -792.743,-102.942 -887.796,-125.832"/>
</g>
<!-- ApplicationController&#45;&gt;Api::VesselClassesController -->
<g id="edge40" class="edge"><title>ApplicationController&#45;&gt;Api::VesselClassesController</title>
<path fill="none" stroke="black" d="M1.47791,79.3013C-169.624,126.612 -709.867,275.994 -886.528,324.842"/>
</g>
<!-- ApplicationController&#45;&gt;Api::VesselTypesController -->
<g id="edge41" class="edge"><title>ApplicationController&#45;&gt;Api::VesselTypesController</title>
<path fill="none" stroke="black" d="M41.857,46.7138C29.2224,28.1493 8.72638,-1.479 -9.98923,-26.3515 -87.5972,-129.49 -186.572,-248.5 -223.903,-292.975"/>
</g>
<!-- ApplicationController&#45;&gt;Api::VesselsController -->
<g id="edge42" class="edge"><title>ApplicationController&#45;&gt;Api::VesselsController</title>
<path fill="none" stroke="black" d="M0.0988217,50.4234C-52.9906,35.9376 -136.164,12.2686 -206.931,-12.159 -222.639,-17.5809 -231.025,-13.2086 -241.679,-25.9603 -244.98,-29.9105 -241.157,-33.004 -243.973,-37.313 -313.959,-144.402 -454.399,-215.579 -523.355,-245.585"/>
</g>
<!-- PagesController -->
<g id="node45" class="node"><title>PagesController</title>
<ellipse fill="none" stroke="black" cx="1589.58" cy="-574.504" rx="67.177" ry="18"/>
<text text-anchor="middle" x="1589.58" y="-570.304" font-family="Times,serif" font-size="14.00">PagesController</text>
</g>
<!-- ApplicationController&#45;&gt;PagesController -->
<g id="edge43" class="edge"><title>ApplicationController&#45;&gt;PagesController</title>
<path fill="none" stroke="black" d="M93.1425,48.4871C308.211,-41.0495 1344.74,-472.572 1553.06,-559.302"/>
</g>
<!-- SupplierPricingDetailsController -->
<g id="node46" class="node"><title>SupplierPricingDetailsController</title>
<ellipse fill="none" stroke="black" cx="1045.12" cy="-138.462" rx="127.039" ry="18"/>
<text text-anchor="middle" x="1045.12" y="-134.262" font-family="Times,serif" font-size="14.00">SupplierPricingDetailsController</text>
</g>
<!-- ApplicationController&#45;&gt;SupplierPricingDetailsController -->
<g id="edge44" class="edge"><title>ApplicationController&#45;&gt;SupplierPricingDetailsController</title>
<path fill="none" stroke="black" d="M123.127,53.4703C216.283,37.9908 387.21,8.72404 532.246,-20.8717 694.7,-54.0219 884.6,-99.274 981.369,-122.805"/>
</g>
</g>
</svg>
