<?xml version="1.0" encoding="UTF-8" standalone="no"?>
<!DOCTYPE svg PUBLIC "-//W3C//DTD SVG 1.1//EN"
 "http://www.w3.org/Graphics/SVG/1.1/DTD/svg11.dtd">
<!-- Generated by graphviz version 2.38.0 (20140413.2041)
 -->
<!-- Title: models_diagram Pages: 1 -->
<svg width="3195pt" height="441pt"
 viewBox="0.00 0.00 3194.73 441.00" xmlns="http://www.w3.org/2000/svg" xmlns:xlink="http://www.w3.org/1999/xlink">
<g id="graph0" class="graph" transform="scale(1 1) rotate(0) translate(4 437)">
<title>models_diagram</title>
<polygon fill="white" stroke="none" points="-4,4 -4,-437 3190.73,-437 3190.73,4 -4,4"/>
<!-- _diagram_info -->
<g id="node1" class="node"><title>_diagram_info</title>
<text text-anchor="start" x="1079.04" y="-418.6" font-family="Times,serif" font-size="13.00">Models diagram</text>
<text text-anchor="start" x="1079.04" y="-405.6" font-family="Times,serif" font-size="13.00">Date: Aug 17 2015 &#45; 10:17</text>
<text text-anchor="start" x="1079.04" y="-392.6" font-family="Times,serif" font-size="13.00">Migration version: 20150810082732</text>
<text text-anchor="start" x="1079.04" y="-379.6" font-family="Times,serif" font-size="13.00">Generated by RailRoady 1.1.2</text>
<text text-anchor="start" x="1079.04" y="-366.6" font-family="Times,serif" font-size="13.00">http://railroady.prestonlee.com</text>
</g>
<!-- Category -->
<g id="node2" class="node"><title>Category</title>
<ellipse fill="none" stroke="black" cx="290.727" cy="-306" rx="42.5456" ry="18"/>
<text text-anchor="middle" x="290.727" y="-301.8" font-family="Times,serif" font-size="14.00">Category</text>
</g>
<!-- Item -->
<g id="node11" class="node"><title>Item</title>
<ellipse fill="none" stroke="black" cx="315.727" cy="-162" rx="27" ry="18"/>
<text text-anchor="middle" x="315.727" y="-157.8" font-family="Times,serif" font-size="14.00">Item</text>
</g>
<!-- Category&#45;&gt;Item -->
<g id="edge2" class="edge"><title>Category&#45;&gt;Item</title>
<path fill="none" stroke="#8f84c3" d="M268.984,-282.9C261.71,-274.037 254.498,-263.259 250.727,-252 245.644,-236.829 243.863,-230.453 250.727,-216 258.156,-200.355 272.714,-187.807 286.172,-178.855"/>
<ellipse fill="none" stroke="#8f84c3" cx="271.629" cy="-285.965" rx="4.00002" ry="4.00002"/>
<polygon fill="#8f84c3" stroke="#8f84c3" points="286.285,-178.785 297.152,-177.314 290.528,-176.14 294.772,-173.495 294.772,-173.495 294.772,-173.495 290.528,-176.14 292.391,-169.676 286.285,-178.785 286.285,-178.785"/>
</g>
<!-- SubCategory -->
<g id="node33" class="node"><title>SubCategory</title>
<ellipse fill="none" stroke="black" cx="315.727" cy="-234" rx="56.07" ry="18"/>
<text text-anchor="middle" x="315.727" y="-229.8" font-family="Times,serif" font-size="14.00">SubCategory</text>
</g>
<!-- Category&#45;&gt;SubCategory -->
<g id="edge1" class="edge"><title>Category&#45;&gt;SubCategory</title>
<path fill="none" stroke="#881572" d="M299.56,-280.267C301.677,-274.34 303.948,-267.981 306.099,-261.959"/>
<ellipse fill="none" stroke="#881572" cx="298.124" cy="-284.288" rx="4.00001" ry="4.00001"/>
<polygon fill="#881572" stroke="#881572" points="306.194,-261.693 313.795,-253.789 307.875,-256.984 309.557,-252.275 309.557,-252.275 309.557,-252.275 307.875,-256.984 305.319,-250.762 306.194,-261.693 306.194,-261.693"/>
</g>
<!-- Contract -->
<g id="node3" class="node"><title>Contract</title>
<ellipse fill="none" stroke="black" cx="1520.73" cy="-306" rx="40.6162" ry="18"/>
<text text-anchor="middle" x="1520.73" y="-301.8" font-family="Times,serif" font-size="14.00">Contract</text>
</g>
<!-- ContractItem -->
<g id="node4" class="node"><title>ContractItem</title>
<ellipse fill="none" stroke="black" cx="1522.73" cy="-234" rx="56.5287" ry="18"/>
<text text-anchor="middle" x="1522.73" y="-229.8" font-family="Times,serif" font-size="14.00">ContractItem</text>
</g>
<!-- Contract&#45;&gt;ContractItem -->
<g id="edge4" class="edge"><title>Contract&#45;&gt;ContractItem</title>
<path fill="none" stroke="#4f9cb0" d="M1521.45,-279.64C1521.61,-274.063 1521.78,-268.132 1521.94,-262.476"/>
<ellipse fill="none" stroke="#4f9cb0" cx="1521.34" cy="-283.698" rx="4" ry="4"/>
<polygon fill="#4f9cb0" stroke="#4f9cb0" points="1521.95,-262.1 1526.74,-252.233 1522.1,-257.102 1522.24,-252.104 1522.24,-252.104 1522.24,-252.104 1522.1,-257.102 1517.74,-251.976 1521.95,-262.1 1521.95,-262.1"/>
</g>
<!-- Driver -->
<g id="node5" class="node"><title>Driver</title>
<ellipse fill="none" stroke="black" cx="1372.73" cy="-234" rx="33.3752" ry="18"/>
<text text-anchor="middle" x="1372.73" y="-229.8" font-family="Times,serif" font-size="14.00">Driver</text>
</g>
<!-- Vehicle -->
<g id="node40" class="node"><title>Vehicle</title>
<ellipse fill="none" stroke="black" cx="1311.73" cy="-162" rx="36.7489" ry="18"/>
<text text-anchor="middle" x="1311.73" y="-157.8" font-family="Times,serif" font-size="14.00">Vehicle</text>
</g>
<!-- Driver&#45;&gt;Vehicle -->
<g id="edge7" class="edge"><title>Driver&#45;&gt;Vehicle</title>
<path fill="none" stroke="#0116b1" d="M1353.77,-211.247C1346.95,-203.421 1339.23,-194.559 1332.28,-186.584"/>
<ellipse fill="none" stroke="#0116b1" cx="1356.56" cy="-214.449" rx="4.00002" ry="4.00002"/>
<polygon fill="#0116b1" stroke="#0116b1" points="1332.22,-186.516 1329.04,-176.021 1328.93,-182.747 1325.65,-178.977 1325.65,-178.977 1325.65,-178.977 1328.93,-182.747 1322.26,-181.934 1332.22,-186.516 1332.22,-186.516"/>
</g>
<!-- Employee -->
<g id="node6" class="node"><title>Employee</title>
<ellipse fill="none" stroke="black" cx="1905.73" cy="-234" rx="45.92" ry="18"/>
<text text-anchor="middle" x="1905.73" y="-229.8" font-family="Times,serif" font-size="14.00">Employee</text>
</g>
<!-- Employer -->
<g id="node7" class="node"><title>Employer</title>
<ellipse fill="none" stroke="black" cx="1340.73" cy="-306" rx="44.9596" ry="18"/>
<text text-anchor="middle" x="1340.73" y="-301.8" font-family="Times,serif" font-size="14.00">Employer</text>
</g>
<!-- Employer&#45;&gt;Driver -->
<g id="edge10" class="edge"><title>Employer&#45;&gt;Driver</title>
<path fill="none" stroke="#9cfdb7" d="M1351.83,-280.714C1354.69,-274.451 1357.79,-267.68 1360.7,-261.318"/>
<ellipse fill="none" stroke="#9cfdb7" cx="1350.14" cy="-284.417" rx="4.00002" ry="4.00002"/>
<polygon fill="#9cfdb7" stroke="#9cfdb7" points="1360.89,-260.884 1369.14,-253.66 1362.97,-256.336 1365.05,-251.789 1365.05,-251.789 1365.05,-251.789 1362.97,-256.336 1360.96,-249.918 1360.89,-260.884 1360.89,-260.884"/>
</g>
<!-- Employer&#45;&gt;Vehicle -->
<g id="edge11" class="edge"><title>Employer&#45;&gt;Vehicle</title>
<path fill="none" stroke="#123668" d="M1335.61,-279.929C1330.46,-254.725 1322.55,-215.994 1317.26,-190.095"/>
<ellipse fill="none" stroke="#123668" cx="1336.43" cy="-283.952" rx="4.00001" ry="4.00001"/>
<polygon fill="#123668" stroke="#123668" points="1317.24,-189.987 1319.65,-179.289 1316.24,-185.088 1315.24,-180.189 1315.24,-180.189 1315.24,-180.189 1316.24,-185.088 1310.83,-181.09 1317.24,-189.987 1317.24,-189.987"/>
</g>
<!-- GovernmentAgency -->
<g id="node8" class="node"><title>GovernmentAgency</title>
<ellipse fill="none" stroke="black" cx="1775.73" cy="-306" rx="81.6268" ry="18"/>
<text text-anchor="middle" x="1775.73" y="-301.8" font-family="Times,serif" font-size="14.00">GovernmentAgency</text>
</g>
<!-- IncidentalItem -->
<g id="node9" class="node"><title>IncidentalItem</title>
<ellipse fill="none" stroke="black" cx="1774.73" cy="-162" rx="61.8389" ry="18"/>
<text text-anchor="middle" x="1774.73" y="-157.8" font-family="Times,serif" font-size="14.00">IncidentalItem</text>
</g>
<!-- IncidentalQuote -->
<g id="node10" class="node"><title>IncidentalQuote</title>
<ellipse fill="none" stroke="black" cx="1774.73" cy="-234" rx="67.1511" ry="18"/>
<text text-anchor="middle" x="1774.73" y="-229.8" font-family="Times,serif" font-size="14.00">IncidentalQuote</text>
</g>
<!-- IncidentalQuote&#45;&gt;IncidentalItem -->
<g id="edge15" class="edge"><title>IncidentalQuote&#45;&gt;IncidentalItem</title>
<path fill="none" stroke="#3baed6" d="M1774.73,-207.64C1774.73,-202.063 1774.73,-196.132 1774.73,-190.476"/>
<ellipse fill="none" stroke="#3baed6" cx="1774.73" cy="-211.697" rx="4" ry="4"/>
<polygon fill="#3baed6" stroke="#3baed6" points="1774.73,-190.104 1779.23,-180.104 1774.73,-185.104 1774.73,-180.104 1774.73,-180.104 1774.73,-180.104 1774.73,-185.104 1770.23,-180.104 1774.73,-190.104 1774.73,-190.104"/>
</g>
<!-- ItemLocationPrice -->
<g id="node12" class="node"><title>ItemLocationPrice</title>
<ellipse fill="none" stroke="black" cx="343.727" cy="-90" rx="75.8294" ry="18"/>
<text text-anchor="middle" x="343.727" y="-85.8" font-family="Times,serif" font-size="14.00">ItemLocationPrice</text>
</g>
<!-- Item&#45;&gt;ItemLocationPrice -->
<g id="edge20" class="edge"><title>Item&#45;&gt;ItemLocationPrice</title>
<path fill="none" stroke="#dc24c3" d="M325.416,-136.778C327.909,-130.544 330.605,-123.805 333.141,-117.463"/>
<ellipse fill="none" stroke="#dc24c3" cx="323.848" cy="-140.697" rx="4.00001" ry="4.00001"/>
<polygon fill="#dc24c3" stroke="#dc24c3" points="333.23,-117.241 341.122,-109.627 335.087,-112.599 336.944,-107.956 336.944,-107.956 336.944,-107.956 335.087,-112.599 332.766,-106.285 333.23,-117.241 333.23,-117.241"/>
</g>
<!-- ItemPrice -->
<g id="node13" class="node"><title>ItemPrice</title>
<ellipse fill="none" stroke="black" cx="74.7267" cy="-90" rx="44.4664" ry="18"/>
<text text-anchor="middle" x="74.7267" y="-85.8" font-family="Times,serif" font-size="14.00">ItemPrice</text>
</g>
<!-- Item&#45;&gt;ItemPrice -->
<g id="edge17" class="edge"><title>Item&#45;&gt;ItemPrice</title>
<path fill="none" stroke="#422a4a" d="M283.132,-152.068C245.753,-141.755 182.678,-124.134 128.727,-108 125.377,-106.998 121.915,-105.946 118.436,-104.878"/>
<ellipse fill="none" stroke="#422a4a" cx="287.3" cy="-153.217" rx="4.00001" ry="4.00001"/>
<polygon fill="#422a4a" stroke="#422a4a" points="118.223,-104.812 110.005,-97.5522 113.448,-103.331 108.672,-101.85 108.672,-101.85 108.672,-101.85 113.448,-103.331 107.339,-106.149 118.223,-104.812 118.223,-104.812"/>
</g>
<!-- RfqSupplierItem -->
<g id="node27" class="node"><title>RfqSupplierItem</title>
<ellipse fill="none" stroke="black" cx="506.727" cy="-90" rx="69.5909" ry="18"/>
<text text-anchor="middle" x="506.727" y="-85.8" font-family="Times,serif" font-size="14.00">RfqSupplierItem</text>
</g>
<!-- Item&#45;&gt;RfqSupplierItem -->
<g id="edge19" class="edge"><title>Item&#45;&gt;RfqSupplierItem</title>
<path fill="none" stroke="#7483f8" d="M346.344,-149.779C376.668,-138.665 423.551,-121.483 458.81,-108.561"/>
<ellipse fill="none" stroke="#7483f8" cx="342.522" cy="-151.18" rx="4.00001" ry="4.00001"/>
<polygon fill="#7483f8" stroke="#7483f8" points="459.034,-108.479 469.972,-109.263 463.728,-106.759 468.423,-105.038 468.423,-105.038 468.423,-105.038 463.728,-106.759 466.875,-100.813 459.034,-108.479 459.034,-108.479"/>
</g>
<!-- SupplierItem -->
<g id="node36" class="node"><title>SupplierItem</title>
<ellipse fill="none" stroke="black" cx="193.727" cy="-90" rx="56.0614" ry="18"/>
<text text-anchor="middle" x="193.727" y="-85.8" font-family="Times,serif" font-size="14.00">SupplierItem</text>
</g>
<!-- Item&#45;&gt;SupplierItem -->
<g id="edge18" class="edge"><title>Item&#45;&gt;SupplierItem</title>
<path fill="none" stroke="#a00ad7" d="M288.68,-145.481C271.01,-135.343 247.763,-122.004 228.694,-111.063"/>
<ellipse fill="none" stroke="#a00ad7" cx="292.384" cy="-147.607" rx="4.00002" ry="4.00002"/>
<polygon fill="#a00ad7" stroke="#a00ad7" points="228.66,-111.044 222.226,-102.164 224.323,-108.556 219.987,-106.067 219.987,-106.067 219.987,-106.067 224.323,-108.556 217.747,-109.97 228.66,-111.044 228.66,-111.044"/>
</g>
<!-- RfqItem -->
<g id="node26" class="node"><title>RfqItem</title>
<ellipse fill="none" stroke="black" cx="473.727" cy="-18" rx="39.6558" ry="18"/>
<text text-anchor="middle" x="473.727" y="-13.8" font-family="Times,serif" font-size="14.00">RfqItem</text>
</g>
<!-- ItemLocationPrice&#45;&gt;RfqItem -->
<g id="edge22" class="edge"><title>ItemLocationPrice&#45;&gt;RfqItem</title>
<path fill="none" stroke="#c540c4" d="M380.129,-69.399C398.936,-59.2721 421.733,-46.9968 440.119,-37.0964"/>
<ellipse fill="none" stroke="#c540c4" cx="376.423" cy="-71.3942" rx="4.00002" ry="4.00002"/>
<polygon fill="#c540c4" stroke="#c540c4" points="440.216,-37.0446 451.154,-36.2656 444.618,-34.674 449.02,-32.3035 449.02,-32.3035 449.02,-32.3035 444.618,-34.674 446.887,-28.3414 440.216,-37.0446 440.216,-37.0446"/>
</g>
<!-- Location -->
<g id="node14" class="node"><title>Location</title>
<ellipse fill="none" stroke="black" cx="961.727" cy="-306" rx="41.5766" ry="18"/>
<text text-anchor="middle" x="961.727" y="-301.8" font-family="Times,serif" font-size="14.00">Location</text>
</g>
<!-- Location&#45;&gt;IncidentalItem -->
<g id="edge26" class="edge"><title>Location&#45;&gt;IncidentalItem</title>
<path fill="none" stroke="#f893d8" d="M969.657,-280.517C977.862,-259.508 992.879,-230.41 1016.73,-216 1024.06,-211.569 1519.02,-179.404 1705.07,-167.454"/>
<ellipse fill="none" stroke="#f893d8" cx="968.229" cy="-284.373" rx="4.00001" ry="4.00001"/>
<polygon fill="#f893d8" stroke="#f893d8" points="1705.3,-167.439 1715.57,-171.289 1710.29,-167.119 1715.28,-166.798 1715.28,-166.798 1715.28,-166.798 1710.29,-167.119 1715,-162.308 1705.3,-167.439 1705.3,-167.439"/>
</g>
<!-- Supplier -->
<g id="node34" class="node"><title>Supplier</title>
<ellipse fill="none" stroke="black" cx="598.727" cy="-234" rx="40.149" ry="18"/>
<text text-anchor="middle" x="598.727" y="-229.8" font-family="Times,serif" font-size="14.00">Supplier</text>
</g>
<!-- Location&#45;&gt;Supplier -->
<g id="edge25" class="edge"><title>Location&#45;&gt;Supplier</title>
<path fill="none" stroke="#714d9f" d="M916.465,-296.272C846.915,-282.86 714.492,-257.324 644.584,-243.843"/>
<ellipse fill="none" stroke="#714d9f" cx="920.658" cy="-297.08" rx="4.00001" ry="4.00001"/>
<polygon fill="#714d9f" stroke="#714d9f" points="644.558,-243.838 635.591,-237.526 639.648,-242.891 634.739,-241.944 634.739,-241.944 634.739,-241.944 639.648,-242.891 633.887,-246.363 644.558,-243.838 644.558,-243.838"/>
</g>
<!-- Logreq -->
<g id="node15" class="node"><title>Logreq</title>
<ellipse fill="none" stroke="black" cx="1229.73" cy="-90" rx="35.7887" ry="18"/>
<text text-anchor="middle" x="1229.73" y="-85.8" font-family="Times,serif" font-size="14.00">Logreq</text>
</g>
<!-- LogreqResponse -->
<g id="node17" class="node"><title>LogreqResponse</title>
<ellipse fill="none" stroke="black" cx="1801.73" cy="-18" rx="69.5823" ry="18"/>
<text text-anchor="middle" x="1801.73" y="-13.8" font-family="Times,serif" font-size="14.00">LogreqResponse</text>
</g>
<!-- Logreq&#45;&gt;LogreqResponse -->
<g id="edge28" class="edge"><title>Logreq&#45;&gt;LogreqResponse</title>
<path fill="none" stroke="#7ca654" d="M1272.31,-83.7891C1369.68,-71.8725 1609.49,-42.5255 1730.07,-27.7696"/>
<ellipse fill="none" stroke="#7ca654" cx="1268.19" cy="-84.2929" rx="4.00001" ry="4.00001"/>
<polygon fill="#7ca654" stroke="#7ca654" points="1730.37,-27.7322 1740.85,-30.9841 1735.34,-27.1248 1740.3,-26.5174 1740.3,-26.5174 1740.3,-26.5174 1735.34,-27.1248 1739.75,-22.0507 1730.37,-27.7322 1730.37,-27.7322"/>
</g>
<!-- LogreqItem -->
<g id="node16" class="node"><title>LogreqItem</title>
<ellipse fill="none" stroke="black" cx="2281.73" cy="-306" rx="51.7002" ry="18"/>
<text text-anchor="middle" x="2281.73" y="-301.8" font-family="Times,serif" font-size="14.00">LogreqItem</text>
</g>
<!-- NavyType -->
<g id="node18" class="node"><title>NavyType</title>
<ellipse fill="none" stroke="black" cx="2398.73" cy="-306" rx="46.6307" ry="18"/>
<text text-anchor="middle" x="2398.73" y="-301.8" font-family="Times,serif" font-size="14.00">NavyType</text>
</g>
<!-- Prepservice -->
<g id="node19" class="node"><title>Prepservice</title>
<ellipse fill="none" stroke="black" cx="2514.73" cy="-306" rx="51.2156" ry="18"/>
<text text-anchor="middle" x="2514.73" y="-301.8" font-family="Times,serif" font-size="14.00">Prepservice</text>
</g>
<!-- Principal -->
<g id="node20" class="node"><title>Principal</title>
<ellipse fill="none" stroke="black" cx="821.727" cy="-306" rx="42.0697" ry="18"/>
<text text-anchor="middle" x="821.727" y="-301.8" font-family="Times,serif" font-size="14.00">Principal</text>
</g>
<!-- Principal&#45;&gt;Logreq -->
<g id="edge35" class="edge"><title>Principal&#45;&gt;Logreq</title>
<path fill="none" stroke="#996ebf" d="M847.989,-285.053C892.33,-252.104 985.734,-185.803 1072.73,-144 1110.63,-125.786 1156.44,-111.092 1188.76,-101.837"/>
<ellipse fill="none" stroke="#996ebf" cx="844.761" cy="-287.463" rx="4.00002" ry="4.00002"/>
<polygon fill="#996ebf" stroke="#996ebf" points="1189.13,-101.733 1199.98,-103.357 1193.95,-100.379 1198.76,-99.0252 1198.76,-99.0252 1198.76,-99.0252 1193.95,-100.379 1197.54,-94.6933 1189.13,-101.733 1189.13,-101.733"/>
</g>
<!-- Rfq -->
<g id="node25" class="node"><title>Rfq</title>
<ellipse fill="none" stroke="black" cx="780.727" cy="-234" rx="27" ry="18"/>
<text text-anchor="middle" x="780.727" y="-229.8" font-family="Times,serif" font-size="14.00">Rfq</text>
</g>
<!-- Principal&#45;&gt;Rfq -->
<g id="edge34" class="edge"><title>Principal&#45;&gt;Rfq</title>
<path fill="none" stroke="#af3547" d="M807.916,-281.421C803.884,-274.537 799.464,-266.99 795.381,-260.02"/>
<ellipse fill="none" stroke="#af3547" cx="809.989" cy="-284.959" rx="4.00002" ry="4.00002"/>
<polygon fill="#af3547" stroke="#af3547" points="795.145,-259.617 793.974,-248.714 792.618,-255.303 790.091,-250.988 790.091,-250.988 790.091,-250.988 792.618,-255.303 786.208,-253.262 795.145,-259.617 795.145,-259.617"/>
</g>
<!-- PurchaseOrder -->
<g id="node21" class="node"><title>PurchaseOrder</title>
<ellipse fill="none" stroke="black" cx="689.727" cy="-162" rx="62.8079" ry="18"/>
<text text-anchor="middle" x="689.727" y="-157.8" font-family="Times,serif" font-size="14.00">PurchaseOrder</text>
</g>
<!-- PurchaseOrderItem -->
<g id="node22" class="node"><title>PurchaseOrderItem</title>
<ellipse fill="none" stroke="black" cx="711.727" cy="-90" rx="78.7194" ry="18"/>
<text text-anchor="middle" x="711.727" y="-85.8" font-family="Times,serif" font-size="14.00">PurchaseOrderItem</text>
</g>
<!-- PurchaseOrder&#45;&gt;PurchaseOrderItem -->
<g id="edge37" class="edge"><title>PurchaseOrder&#45;&gt;PurchaseOrderItem</title>
<path fill="none" stroke="#0ef91e" d="M697.5,-136.267C699.363,-130.34 701.361,-123.981 703.254,-117.959"/>
<ellipse fill="none" stroke="#0ef91e" cx="696.252" cy="-140.239" rx="4.00001" ry="4.00001"/>
<polygon fill="#0ef91e" stroke="#0ef91e" points="703.299,-117.815 710.59,-109.625 704.798,-113.045 706.297,-108.275 706.297,-108.275 706.297,-108.275 704.798,-113.045 702.004,-106.926 703.299,-117.815 703.299,-117.815"/>
</g>
<!-- QualityQuestionnaire -->
<g id="node23" class="node"><title>QualityQuestionnaire</title>
<ellipse fill="none" stroke="black" cx="2670.73" cy="-306" rx="86.4791" ry="18"/>
<text text-anchor="middle" x="2670.73" y="-301.8" font-family="Times,serif" font-size="14.00">QualityQuestionnaire</text>
</g>
<!-- QuestionnaireCriterium -->
<g id="node24" class="node"><title>QuestionnaireCriterium</title>
<ellipse fill="none" stroke="black" cx="2868.73" cy="-306" rx="94.1964" ry="18"/>
<text text-anchor="middle" x="2868.73" y="-301.8" font-family="Times,serif" font-size="14.00">QuestionnaireCriterium</text>
</g>
<!-- Rfq&#45;&gt;PurchaseOrder -->
<g id="edge44" class="edge"><title>Rfq&#45;&gt;PurchaseOrder</title>
<path fill="none" stroke="#2e4d33" d="M756.895,-214.668C745.222,-205.689 731.067,-194.8 718.766,-185.338"/>
<ellipse fill="none" stroke="#2e4d33" cx="760.44" cy="-217.395" rx="4.00002" ry="4.00002"/>
<polygon fill="#2e4d33" stroke="#2e4d33" points="718.527,-185.154 713.344,-175.49 714.564,-182.105 710.6,-179.057 710.6,-179.057 710.6,-179.057 714.564,-182.105 707.857,-182.623 718.527,-185.154 718.527,-185.154"/>
</g>
<!-- Rfq&#45;&gt;RfqItem -->
<g id="edge42" class="edge"><title>Rfq&#45;&gt;RfqItem</title>
<path fill="none" stroke="#3b76db" d="M793.337,-209.266C809.731,-174.764 832.616,-110.668 799.727,-72 764.857,-31.0036 605.833,-21.6329 523.486,-19.5505"/>
<ellipse fill="none" stroke="#3b76db" cx="791.518" cy="-212.972" rx="4.00002" ry="4.00002"/>
<polygon fill="#3b76db" stroke="#3b76db" points="523.354,-19.5477 513.459,-14.8226 518.355,-19.4346 513.357,-19.3215 513.357,-19.3215 513.357,-19.3215 518.355,-19.4346 513.255,-23.8203 523.354,-19.5477 523.354,-19.5477"/>
</g>
<!-- Rfq&#45;&gt;RfqSupplierItem -->
<g id="edge43" class="edge"><title>Rfq&#45;&gt;RfqSupplierItem</title>
<path fill="none" stroke="#e7d856" d="M782.287,-207.599C782.059,-187.614 778.292,-160.476 761.727,-144 748.511,-130.855 646.528,-112.656 575.611,-101.366"/>
<ellipse fill="none" stroke="#e7d856" cx="782.24" cy="-211.674" rx="4" ry="4"/>
<polygon fill="#e7d856" stroke="#e7d856" points="575.266,-101.312 566.09,-95.3071 570.327,-100.532 565.388,-99.7521 565.388,-99.7521 565.388,-99.7521 570.327,-100.532 564.686,-104.197 575.266,-101.312 575.266,-101.312"/>
</g>
<!-- Role -->
<g id="node28" class="node"><title>Role</title>
<ellipse fill="none" stroke="black" cx="1940.73" cy="-306" rx="27" ry="18"/>
<text text-anchor="middle" x="1940.73" y="-301.8" font-family="Times,serif" font-size="14.00">Role</text>
</g>
<!-- Role&#45;&gt;Employee -->
<g id="edge48" class="edge"><title>Role&#45;&gt;Employee</title>
<path fill="none" stroke="#3298b4" d="M1928.93,-281.409C1925.71,-274.963 1922.2,-267.937 1918.9,-261.348"/>
<ellipse fill="none" stroke="#3298b4" cx="1930.82" cy="-285.187" rx="4.00002" ry="4.00002"/>
<polygon fill="#3298b4" stroke="#3298b4" points="1918.76,-261.068 1918.31,-250.111 1916.52,-256.596 1914.29,-252.124 1914.29,-252.124 1914.29,-252.124 1916.52,-256.596 1910.26,-254.136 1918.76,-261.068 1918.76,-261.068"/>
</g>
<!-- RoleManagement -->
<g id="node29" class="node"><title>RoleManagement</title>
<ellipse fill="none" stroke="black" cx="2042.73" cy="-234" rx="72.948" ry="18"/>
<text text-anchor="middle" x="2042.73" y="-229.8" font-family="Times,serif" font-size="14.00">RoleManagement</text>
</g>
<!-- Role&#45;&gt;RoleManagement -->
<g id="edge50" class="edge"><title>Role&#45;&gt;RoleManagement</title>
<path fill="none" stroke="#0bdfdd" d="M1965.64,-287.904C1979.3,-278.527 1996.38,-266.804 2010.99,-256.778"/>
<ellipse fill="none" stroke="#0bdfdd" cx="1962.26" cy="-290.222" rx="4.00002" ry="4.00002"/>
<polygon fill="#0bdfdd" stroke="#0bdfdd" points="2011.02,-256.76 2021.81,-254.812 2015.14,-253.931 2019.26,-251.102 2019.26,-251.102 2019.26,-251.102 2015.14,-253.931 2016.72,-247.392 2011.02,-256.76 2011.02,-256.76"/>
</g>
<!-- User -->
<g id="node39" class="node"><title>User</title>
<ellipse fill="none" stroke="black" cx="1662.73" cy="-234" rx="27" ry="18"/>
<text text-anchor="middle" x="1662.73" y="-229.8" font-family="Times,serif" font-size="14.00">User</text>
</g>
<!-- Role&#45;&gt;User -->
<g id="edge49" class="edge"><title>Role&#45;&gt;User</title>
<path fill="none" stroke="#49a597" d="M1907.66,-297.295C1894.88,-294.345 1880.13,-290.976 1866.73,-288 1792.18,-271.451 1771.06,-276.465 1698.73,-252 1696.81,-251.352 1694.86,-250.631 1692.92,-249.86"/>
<ellipse fill="none" stroke="#49a597" cx="1911.85" cy="-298.263" rx="4.00001" ry="4.00001"/>
<polygon fill="#49a597" stroke="#49a597" points="1692.51,-249.685 1685.11,-241.59 1687.92,-247.704 1683.33,-245.722 1683.33,-245.722 1683.33,-245.722 1687.92,-247.704 1681.55,-249.853 1692.51,-249.685 1692.51,-249.685"/>
</g>
<!-- Service -->
<g id="node30" class="node"><title>Service</title>
<ellipse fill="none" stroke="black" cx="2098.73" cy="-306" rx="36.7489" ry="18"/>
<text text-anchor="middle" x="2098.73" y="-301.8" font-family="Times,serif" font-size="14.00">Service</text>
</g>
<!-- Service&#45;&gt;IncidentalItem -->
<g id="edge54" class="edge"><title>Service&#45;&gt;IncidentalItem</title>
<path fill="none" stroke="#d64349" d="M2115.94,-282.169C2128.48,-262.558 2140.71,-234.588 2124.73,-216 2089.58,-175.13 1938.25,-165.385 1846.47,-163.3"/>
<ellipse fill="none" stroke="#d64349" cx="2113.59" cy="-285.663" rx="4.00002" ry="4.00002"/>
<polygon fill="#d64349" stroke="#d64349" points="1846.41,-163.299 1836.5,-158.597 1841.41,-163.197 1836.41,-163.096 1836.41,-163.096 1836.41,-163.096 1841.41,-163.197 1836.32,-167.595 1846.41,-163.299 1846.41,-163.299"/>
</g>
<!-- SupplierPricingDetail -->
<g id="node37" class="node"><title>SupplierPricingDetail</title>
<ellipse fill="none" stroke="black" cx="2258.73" cy="-234" rx="87.4567" ry="18"/>
<text text-anchor="middle" x="2258.73" y="-229.8" font-family="Times,serif" font-size="14.00">SupplierPricingDetail</text>
</g>
<!-- Service&#45;&gt;SupplierPricingDetail -->
<g id="edge53" class="edge"><title>Service&#45;&gt;SupplierPricingDetail</title>
<path fill="none" stroke="#eb65e9" d="M2132.71,-290.131C2156.43,-279.755 2188.32,-265.803 2214.08,-254.531"/>
<ellipse fill="none" stroke="#eb65e9" cx="2128.81" cy="-291.838" rx="4.00002" ry="4.00002"/>
<polygon fill="#eb65e9" stroke="#eb65e9" points="2214.11,-254.519 2225.08,-254.634 2218.69,-252.515 2223.27,-250.511 2223.27,-250.511 2223.27,-250.511 2218.69,-252.515 2221.47,-246.388 2214.11,-254.519 2214.11,-254.519"/>
</g>
<!-- ServiceProvider -->
<g id="node31" class="node"><title>ServiceProvider</title>
<ellipse fill="none" stroke="black" cx="3047.73" cy="-306" rx="67.1597" ry="18"/>
<text text-anchor="middle" x="3047.73" y="-301.8" font-family="Times,serif" font-size="14.00">ServiceProvider</text>
</g>
<!-- ShipArrival -->
<g id="node32" class="node"><title>ShipArrival</title>
<ellipse fill="none" stroke="black" cx="1437.73" cy="-162" rx="51.726" ry="18"/>
<text text-anchor="middle" x="1437.73" y="-157.8" font-family="Times,serif" font-size="14.00">ShipArrival</text>
</g>
<!-- SubCategory&#45;&gt;Item -->
<g id="edge58" class="edge"><title>SubCategory&#45;&gt;Item</title>
<path fill="none" stroke="#dffa7a" d="M315.727,-207.64C315.727,-202.063 315.727,-196.132 315.727,-190.476"/>
<ellipse fill="none" stroke="#dffa7a" cx="315.727" cy="-211.697" rx="4" ry="4"/>
<polygon fill="#dffa7a" stroke="#dffa7a" points="315.727,-190.104 320.227,-180.104 315.727,-185.104 315.727,-180.104 315.727,-180.104 315.727,-180.104 315.727,-185.104 311.227,-180.104 315.727,-190.104 315.727,-190.104"/>
</g>
<!-- Supplier&#45;&gt;PurchaseOrder -->
<g id="edge62" class="edge"><title>Supplier&#45;&gt;PurchaseOrder</title>
<path fill="none" stroke="#17ec29" d="M624.628,-213.076C635.905,-204.401 649.167,-194.199 660.769,-185.275"/>
<ellipse fill="none" stroke="#17ec29" cx="621.196" cy="-215.716" rx="4.00002" ry="4.00002"/>
<polygon fill="#17ec29" stroke="#17ec29" points="660.945,-185.14 671.615,-182.61 664.908,-182.092 668.871,-179.043 668.871,-179.043 668.871,-179.043 664.908,-182.092 666.127,-175.476 660.945,-185.14 660.945,-185.14"/>
</g>
<!-- Supplier&#45;&gt;RfqItem -->
<g id="edge63" class="edge"><title>Supplier&#45;&gt;RfqItem</title>
<path fill="none" stroke="#ec1f07" d="M603.881,-207.866C609.381,-173.848 613.871,-112.727 585.727,-72 570.303,-49.6797 542.891,-36.4882 519.048,-28.8481"/>
<ellipse fill="none" stroke="#ec1f07" cx="603.168" cy="-211.962" rx="4.00001" ry="4.00001"/>
<polygon fill="#ec1f07" stroke="#ec1f07" points="519.024,-28.841 510.717,-21.6828 514.231,-27.419 509.437,-25.997 509.437,-25.997 509.437,-25.997 514.231,-27.419 508.157,-30.3112 519.024,-28.841 519.024,-28.841"/>
</g>
<!-- Supplier&#45;&gt;RfqSupplierItem -->
<g id="edge61" class="edge"><title>Supplier&#45;&gt;RfqSupplierItem</title>
<path fill="none" stroke="#328ea1" d="M583.561,-209.591C566.967,-183.979 540.452,-143.054 523.316,-116.605"/>
<ellipse fill="none" stroke="#328ea1" cx="585.818" cy="-213.076" rx="4.00002" ry="4.00002"/>
<polygon fill="#328ea1" stroke="#328ea1" points="523.115,-116.294 521.454,-105.455 520.396,-112.098 517.677,-107.902 517.677,-107.902 517.677,-107.902 520.396,-112.098 513.901,-110.349 523.115,-116.294 523.115,-116.294"/>
</g>
<!-- Supplier&#45;&gt;SupplierItem -->
<g id="edge60" class="edge"><title>Supplier&#45;&gt;SupplierItem</title>
<path fill="none" stroke="#306d7d" d="M561.053,-219.131C512.697,-201.398 426.151,-169.887 351.727,-144 314.74,-131.135 272.696,-117.058 241.283,-106.647"/>
<ellipse fill="none" stroke="#306d7d" cx="565.011" cy="-220.584" rx="4.00001" ry="4.00001"/>
<polygon fill="#306d7d" stroke="#306d7d" points="240.971,-106.544 232.891,-99.1297 236.224,-104.973 231.477,-103.402 231.477,-103.402 231.477,-103.402 236.224,-104.973 230.063,-107.674 240.971,-106.544 240.971,-106.544"/>
</g>
<!-- SupplierCategory -->
<g id="node35" class="node"><title>SupplierCategory</title>
<ellipse fill="none" stroke="black" cx="613.727" cy="-306" rx="72.4808" ry="18"/>
<text text-anchor="middle" x="613.727" y="-301.8" font-family="Times,serif" font-size="14.00">SupplierCategory</text>
</g>
<!-- SupplierCategory&#45;&gt;Supplier -->
<g id="edge65" class="edge"><title>SupplierCategory&#45;&gt;Supplier</title>
<path fill="none" stroke="#cef491" d="M608.292,-279.64C607.067,-273.92 605.761,-267.828 604.521,-262.042"/>
<ellipse fill="none" stroke="#cef491" cx="609.181" cy="-283.785" rx="4.00001" ry="4.00001"/>
<polygon fill="#cef491" stroke="#cef491" points="604.487,-261.882 606.792,-251.161 603.44,-256.993 602.392,-252.104 602.392,-252.104 602.392,-252.104 603.44,-256.993 597.992,-253.047 604.487,-261.882 604.487,-261.882"/>
</g>
<!-- SupplierPricingDetail&#45;&gt;IncidentalItem -->
<g id="edge68" class="edge"><title>SupplierPricingDetail&#45;&gt;IncidentalItem</title>
<path fill="none" stroke="#a0c103" d="M2186.13,-220.52C2176.59,-218.955 2166.93,-217.41 2157.73,-216 2046.28,-198.914 1916.21,-181.434 1839.92,-171.431"/>
<ellipse fill="none" stroke="#a0c103" cx="2190.17" cy="-221.185" rx="4.00001" ry="4.00001"/>
<polygon fill="#a0c103" stroke="#a0c103" points="1839.9,-171.428 1830.56,-165.668 1834.94,-170.779 1829.98,-170.13 1829.98,-170.13 1829.98,-170.13 1834.94,-170.779 1829.4,-174.592 1839.9,-171.428 1839.9,-171.428"/>
</g>
<!-- Tool -->
<g id="node38" class="node"><title>Tool</title>
<ellipse fill="none" stroke="black" cx="3159.73" cy="-306" rx="27" ry="18"/>
<text text-anchor="middle" x="3159.73" y="-301.8" font-family="Times,serif" font-size="14.00">Tool</text>
</g>
<!-- User&#45;&gt;Logreq -->
<g id="edge72" class="edge"><title>User&#45;&gt;Logreq</title>
<path fill="none" stroke="#d5851f" d="M1637.37,-216.059C1606.08,-195.925 1550.64,-162.708 1498.73,-144 1422.58,-116.561 1328.91,-102.19 1274.59,-95.6327"/>
<ellipse fill="none" stroke="#d5851f" cx="1641.06" cy="-218.456" rx="4.00002" ry="4.00002"/>
<polygon fill="#d5851f" stroke="#d5851f" points="1274.53,-95.6251 1265.12,-89.9915 1269.56,-95.043 1264.59,-94.4609 1264.59,-94.4609 1264.59,-94.4609 1269.56,-95.043 1264.07,-98.9303 1274.53,-95.6251 1274.53,-95.6251"/>
</g>
<!-- User&#45;&gt;ShipArrival -->
<g id="edge71" class="edge"><title>User&#45;&gt;ShipArrival</title>
<path fill="none" stroke="#dc7b40" d="M1630.86,-223.085C1592.69,-211.21 1528.42,-191.217 1484.6,-177.582"/>
<ellipse fill="none" stroke="#dc7b40" cx="1634.83" cy="-224.32" rx="4.00001" ry="4.00001"/>
<polygon fill="#dc7b40" stroke="#dc7b40" points="1484.57,-177.574 1476.36,-170.306 1479.8,-176.089 1475.02,-174.603 1475.02,-174.603 1475.02,-174.603 1479.8,-176.089 1473.69,-178.9 1484.57,-177.574 1484.57,-177.574"/>
</g>
<!-- Vessel -->
<g id="node41" class="node"><title>Vessel</title>
<ellipse fill="none" stroke="black" cx="1114.73" cy="-162" rx="32.9081" ry="18"/>
<text text-anchor="middle" x="1114.73" y="-157.8" font-family="Times,serif" font-size="14.00">Vessel</text>
</g>
<!-- Vessel&#45;&gt;Logreq -->
<g id="edge75" class="edge"><title>Vessel&#45;&gt;Logreq</title>
<path fill="none" stroke="#44f5e7" d="M1142.85,-143.885C1159.82,-133.553 1181.46,-120.377 1198.9,-109.762"/>
<ellipse fill="none" stroke="#44f5e7" cx="1139.24" cy="-146.081" rx="4.00002" ry="4.00002"/>
<polygon fill="#44f5e7" stroke="#44f5e7" points="1199.05,-109.673 1209.93,-108.317 1203.32,-107.073 1207.59,-104.473 1207.59,-104.473 1207.59,-104.473 1203.32,-107.073 1205.25,-100.629 1199.05,-109.673 1199.05,-109.673"/>
</g>
<!-- VesselClass -->
<g id="node42" class="node"><title>VesselClass</title>
<ellipse fill="none" stroke="black" cx="1149.73" cy="-306" rx="51.7346" ry="18"/>
<text text-anchor="middle" x="1149.73" y="-301.8" font-family="Times,serif" font-size="14.00">VesselClass</text>
</g>
<!-- VesselClass&#45;&gt;ShipArrival -->
<g id="edge78" class="edge"><title>VesselClass&#45;&gt;ShipArrival</title>
<path fill="none" stroke="#68348f" d="M1185.86,-287.184C1240.66,-260.165 1344.28,-209.075 1400,-181.6"/>
<ellipse fill="none" stroke="#68348f" cx="1181.98" cy="-289.096" rx="4.00002" ry="4.00002"/>
<polygon fill="#68348f" stroke="#68348f" points="1400.21,-181.5 1411.17,-181.114 1404.69,-179.289 1409.18,-177.077 1409.18,-177.077 1409.18,-177.077 1404.69,-179.289 1407.19,-173.041 1400.21,-181.5 1400.21,-181.5"/>
</g>
<!-- VesselClass&#45;&gt;Vessel -->
<g id="edge79" class="edge"><title>VesselClass&#45;&gt;Vessel</title>
<path fill="none" stroke="#50cfe0" d="M1146.76,-279.483C1144.35,-261.535 1140.42,-237.059 1134.73,-216 1132.33,-207.129 1129.02,-197.673 1125.78,-189.241"/>
<ellipse fill="none" stroke="#50cfe0" cx="1147.31" cy="-283.758" rx="4.00001" ry="4.00001"/>
<polygon fill="#50cfe0" stroke="#50cfe0" points="1125.76,-189.202 1126.25,-178.247 1123.92,-184.555 1122.07,-179.909 1122.07,-179.909 1122.07,-179.909 1123.92,-184.555 1117.89,-181.572 1125.76,-189.202 1125.76,-189.202"/>
</g>
<!-- VesselType -->
<g id="node43" class="node"><title>VesselType</title>
<ellipse fill="none" stroke="black" cx="1075.73" cy="-234" rx="50.0142" ry="18"/>
<text text-anchor="middle" x="1075.73" y="-229.8" font-family="Times,serif" font-size="14.00">VesselType</text>
</g>
<!-- VesselClass&#45;&gt;VesselType -->
<g id="edge77" class="edge"><title>VesselClass&#45;&gt;VesselType</title>
<path fill="none" stroke="#744e95" d="M1126.7,-283.22C1118.31,-275.283 1108.8,-266.283 1100.28,-258.225"/>
<ellipse fill="none" stroke="#744e95" cx="1129.66" cy="-286.016" rx="4.00002" ry="4.00002"/>
<polygon fill="#744e95" stroke="#744e95" points="1100.06,-258.019 1095.89,-247.878 1096.43,-254.583 1092.8,-251.147 1092.8,-251.147 1092.8,-251.147 1096.43,-254.583 1089.7,-254.416 1100.06,-258.019 1100.06,-258.019"/>
</g>
<!-- VesselType&#45;&gt;Vessel -->
<g id="edge81" class="edge"><title>VesselType&#45;&gt;Vessel</title>
<path fill="none" stroke="#1833fc" d="M1089.16,-208.889C1092.9,-202.175 1096.97,-194.867 1100.74,-188.098"/>
<ellipse fill="none" stroke="#1833fc" cx="1087.11" cy="-212.561" rx="4.00002" ry="4.00002"/>
<polygon fill="#1833fc" stroke="#1833fc" points="1100.77,-188.043 1109.57,-181.497 1103.21,-183.675 1105.64,-179.307 1105.64,-179.307 1105.64,-179.307 1103.21,-183.675 1101.71,-177.117 1100.77,-188.043 1100.77,-188.043"/>
</g>
<!-- ActiveRecord::Base -->
<g id="node44" class="node"><title>ActiveRecord::Base</title>
<ellipse fill="none" stroke="black" cx="1377.73" cy="-396.5" rx="81.1422" ry="18"/>
<text text-anchor="middle" x="1377.73" y="-392.3" font-family="Times,serif" font-size="14.00">ActiveRecord::Base</text>
</g>
<!-- ActiveRecord::Base&#45;&gt;Category -->
<g id="edge3" class="edge"><title>ActiveRecord::Base&#45;&gt;Category</title>
<path fill="none" stroke="black" d="M1345.63,-379.78C1328.81,-372.336 1307.62,-364.177 1287.73,-360 878.567,-274.076 760.197,-392.285 347.727,-324 339.475,-322.634 330.738,-320.43 322.65,-318.056"/>
</g>
<!-- ActiveRecord::Base&#45;&gt;Contract -->
<g id="edge5" class="edge"><title>ActiveRecord::Base&#45;&gt;Contract</title>
<path fill="none" stroke="black" d="M1403.96,-379.268C1430.89,-362.601 1472.37,-336.925 1497.96,-321.087"/>
</g>
<!-- ActiveRecord::Base&#45;&gt;ContractItem -->
<g id="edge6" class="edge"><title>ActiveRecord::Base&#45;&gt;ContractItem</title>
<path fill="none" stroke="black" d="M1451.22,-388.581C1493.69,-380.379 1543.89,-362.567 1570.73,-324 1587.47,-299.937 1561.94,-269.394 1542.17,-251.066"/>
</g>
<!-- ActiveRecord::Base&#45;&gt;Driver -->
<g id="edge8" class="edge"><title>ActiveRecord::Base&#45;&gt;Driver</title>
<path fill="none" stroke="black" d="M1384.19,-378.296C1391.34,-357.007 1401.04,-319.687 1394.73,-288 1392.2,-275.298 1386.56,-261.83 1381.63,-251.648"/>
</g>
<!-- ActiveRecord::Base&#45;&gt;Employee -->
<g id="edge9" class="edge"><title>ActiveRecord::Base&#45;&gt;Employee</title>
<path fill="none" stroke="black" d="M1456.29,-391.837C1610.91,-383.819 1942.72,-362.304 1976.73,-324 1987.35,-312.035 1983.9,-302.303 1976.73,-288 1967.9,-270.4 1950.15,-257.15 1934.61,-248.3"/>
</g>
<!-- ActiveRecord::Base&#45;&gt;Employer -->
<g id="edge12" class="edge"><title>ActiveRecord::Base&#45;&gt;Employer</title>
<path fill="none" stroke="black" d="M1370.59,-378.436C1364.04,-362.765 1354.38,-339.666 1347.84,-324.011"/>
</g>
<!-- ActiveRecord::Base&#45;&gt;GovernmentAgency -->
<g id="edge13" class="edge"><title>ActiveRecord::Base&#45;&gt;GovernmentAgency</title>
<path fill="none" stroke="black" d="M1433.07,-383.194C1508.89,-366.334 1644.3,-336.224 1720.22,-319.343"/>
</g>
<!-- ActiveRecord::Base&#45;&gt;IncidentalItem -->
<g id="edge14" class="edge"><title>ActiveRecord::Base&#45;&gt;IncidentalItem</title>
<path fill="none" stroke="black" d="M1448.26,-387.286C1493.42,-378.581 1550.35,-360.695 1587.73,-324 1624.14,-288.247 1590.59,-252.038 1626.73,-216 1651.75,-191.042 1689.33,-177.772 1720.36,-170.752"/>
</g>
<!-- ActiveRecord::Base&#45;&gt;IncidentalQuote -->
<g id="edge16" class="edge"><title>ActiveRecord::Base&#45;&gt;IncidentalQuote</title>
<path fill="none" stroke="black" d="M1459.25,-395.891C1584.45,-394.557 1815.04,-383.798 1866.73,-324 1877.19,-311.896 1874.73,-301.853 1866.73,-288 1855.84,-269.168 1835.45,-256.436 1816.62,-248.182"/>
</g>
<!-- ActiveRecord::Base&#45;&gt;Item -->
<g id="edge21" class="edge"><title>ActiveRecord::Base&#45;&gt;Item</title>
<path fill="none" stroke="black" d="M1345.63,-379.808C1328.8,-372.371 1307.61,-364.21 1287.73,-360 1193.73,-340.095 502.107,-379.575 423.727,-324 381.581,-294.117 411.283,-257.66 380.727,-216 368.326,-199.093 349.31,-184.437 335.044,-174.849"/>
</g>
<!-- ActiveRecord::Base&#45;&gt;ItemLocationPrice -->
<g id="edge23" class="edge"><title>ActiveRecord::Base&#45;&gt;ItemLocationPrice</title>
<path fill="none" stroke="black" d="M1345.62,-379.839C1328.79,-372.411 1307.6,-364.248 1287.73,-360 1201.58,-341.588 572.213,-367.701 495.727,-324 451.59,-298.782 377.267,-157.5 352.242,-108.075"/>
</g>
<!-- ActiveRecord::Base&#45;&gt;ItemPrice -->
<g id="edge24" class="edge"><title>ActiveRecord::Base&#45;&gt;ItemPrice</title>
<path fill="none" stroke="black" d="M1345.64,-379.739C1328.82,-372.284 1307.63,-364.128 1287.73,-360 1170.16,-335.615 310.541,-386.01 207.727,-324 125.365,-274.325 89.3368,-153.184 78.4835,-108.194"/>
</g>
<!-- ActiveRecord::Base&#45;&gt;Location -->
<g id="edge27" class="edge"><title>ActiveRecord::Base&#45;&gt;Location</title>
<path fill="none" stroke="black" d="M1344.19,-380.018C1327.53,-372.915 1306.91,-364.983 1287.73,-360 1170.55,-329.565 1136.04,-349.667 1017.73,-324 1009.78,-322.277 1001.34,-319.97 993.475,-317.613"/>
</g>
<!-- ActiveRecord::Base&#45;&gt;Logreq -->
<g id="edge29" class="edge"><title>ActiveRecord::Base&#45;&gt;Logreq</title>
<path fill="none" stroke="black" d="M1342.58,-380.207C1319.38,-368.266 1290.3,-349.424 1273.73,-324 1228.21,-254.16 1227.17,-149.02 1228.73,-108.125"/>
</g>
<!-- ActiveRecord::Base&#45;&gt;LogreqItem -->
<g id="edge30" class="edge"><title>ActiveRecord::Base&#45;&gt;LogreqItem</title>
<path fill="none" stroke="black" d="M1457.72,-393.117C1607.47,-387.676 1939.89,-370.953 2215.73,-324 2224.71,-322.471 2234.26,-320.324 2243.22,-318.069"/>
</g>
<!-- ActiveRecord::Base&#45;&gt;LogreqResponse -->
<g id="edge31" class="edge"><title>ActiveRecord::Base&#45;&gt;LogreqResponse</title>
<path fill="none" stroke="black" d="M1458.77,-394.741C1636.04,-392.048 2052.65,-379.789 2180.73,-324 2202.65,-314.448 2199.71,-299.417 2220.73,-288 2274.91,-258.563 2317.2,-300.936 2354.73,-252 2485.95,-80.8666 2043.4,-34.147 1869.17,-22.5319"/>
</g>
<!-- ActiveRecord::Base&#45;&gt;NavyType -->
<g id="edge32" class="edge"><title>ActiveRecord::Base&#45;&gt;NavyType</title>
<path fill="none" stroke="black" d="M1459.2,-395.499C1626.34,-394.178 2019.45,-384.278 2342.73,-324 2350.02,-322.64 2357.7,-320.674 2364.97,-318.557"/>
</g>
<!-- ActiveRecord::Base&#45;&gt;Prepservice -->
<g id="edge33" class="edge"><title>ActiveRecord::Base&#45;&gt;Prepservice</title>
<path fill="none" stroke="black" d="M1459.14,-395.894C1639.74,-395.505 2087.04,-387.568 2454.73,-324 2462.41,-322.672 2470.51,-320.746 2478.2,-318.664"/>
</g>
<!-- ActiveRecord::Base&#45;&gt;Principal -->
<g id="edge36" class="edge"><title>ActiveRecord::Base&#45;&gt;Principal</title>
<path fill="none" stroke="black" d="M1345.12,-380.006C1328.35,-372.717 1307.34,-364.627 1287.73,-360 1109.69,-318.005 1057.32,-358.754 877.727,-324 869.747,-322.456 861.285,-320.216 853.423,-317.867"/>
</g>
<!-- ActiveRecord::Base&#45;&gt;PurchaseOrder -->
<g id="edge38" class="edge"><title>ActiveRecord::Base&#45;&gt;PurchaseOrder</title>
<path fill="none" stroke="black" d="M1345.16,-379.842C1328.39,-372.511 1307.39,-364.433 1287.73,-360 1172.57,-334.035 853.839,-392.542 757.727,-324 709.554,-289.646 695.315,-214.214 691.264,-180.216"/>
</g>
<!-- ActiveRecord::Base&#45;&gt;PurchaseOrderItem -->
<g id="edge39" class="edge"><title>ActiveRecord::Base&#45;&gt;PurchaseOrderItem</title>
<path fill="none" stroke="black" d="M1344.69,-379.887C1327.98,-372.662 1307.16,-364.663 1287.73,-360 1205.89,-340.367 983.44,-366.373 910.727,-324 868.541,-299.416 818.953,-178.822 784.727,-144 770.784,-129.815 752.709,-116.66 738.033,-107.005"/>
</g>
<!-- ActiveRecord::Base&#45;&gt;QualityQuestionnaire -->
<g id="edge40" class="edge"><title>ActiveRecord::Base&#45;&gt;QualityQuestionnaire</title>
<path fill="none" stroke="black" d="M1458.21,-393.902C1651.39,-389.368 2156.32,-373.375 2574.73,-324 2586.16,-322.651 2598.29,-320.819 2609.94,-318.856"/>
</g>
<!-- ActiveRecord::Base&#45;&gt;QuestionnaireCriterium -->
<g id="edge41" class="edge"><title>ActiveRecord::Base&#45;&gt;QuestionnaireCriterium</title>
<path fill="none" stroke="black" d="M1458.55,-394.5C1672.47,-391.168 2270.94,-377.406 2765.73,-324 2777.89,-322.687 2790.8,-320.885 2803.22,-318.942"/>
</g>
<!-- ActiveRecord::Base&#45;&gt;Rfq -->
<g id="edge45" class="edge"><title>ActiveRecord::Base&#45;&gt;Rfq</title>
<path fill="none" stroke="black" d="M1345.16,-379.856C1328.39,-372.528 1307.39,-364.45 1287.73,-360 1231.56,-347.287 810.005,-366.108 770.727,-324 752.485,-304.444 763.27,-270.99 772.311,-251.142"/>
</g>
<!-- ActiveRecord::Base&#45;&gt;RfqItem -->
<g id="edge46" class="edge"><title>ActiveRecord::Base&#45;&gt;RfqItem</title>
<path fill="none" stroke="black" d="M1346.06,-379.912C1329.18,-372.405 1307.79,-364.148 1287.73,-360 1042.56,-309.323 402.931,-391.049 161.727,-324 83.7011,-302.311 2.72675,-315.984 2.72675,-235 2.72675,-235 2.72675,-235 2.72675,-161 2.72675,-120.553 -8.18024,-99.2309 21.7267,-72 52.0326,-44.4059 330.168,-26.7241 434.467,-21.0148"/>
</g>
<!-- ActiveRecord::Base&#45;&gt;RfqSupplierItem -->
<g id="edge47" class="edge"><title>ActiveRecord::Base&#45;&gt;RfqSupplierItem</title>
<path fill="none" stroke="black" d="M1345.62,-379.852C1328.79,-372.427 1307.6,-364.263 1287.73,-360 1204.42,-342.127 582.495,-383.725 521.727,-324 462.461,-265.753 488.494,-151.381 501.219,-108.122"/>
</g>
<!-- ActiveRecord::Base&#45;&gt;Role -->
<g id="edge51" class="edge"><title>ActiveRecord::Base&#45;&gt;Role</title>
<path fill="none" stroke="black" d="M1455.47,-391.097C1558.56,-383.851 1745.44,-365.802 1899.73,-324 1906.27,-322.227 1913.16,-319.664 1919.39,-317.064"/>
</g>
<!-- ActiveRecord::Base&#45;&gt;RoleManagement -->
<g id="edge52" class="edge"><title>ActiveRecord::Base&#45;&gt;RoleManagement</title>
<path fill="none" stroke="black" d="M1458.93,-395.209C1606.01,-393.221 1909.21,-381.978 1994.73,-324 2019.72,-307.056 2032.8,-272.704 2038.69,-251.986"/>
</g>
<!-- ActiveRecord::Base&#45;&gt;Service -->
<g id="edge55" class="edge"><title>ActiveRecord::Base&#45;&gt;Service</title>
<path fill="none" stroke="black" d="M1457.25,-392.551C1583.64,-386.63 1837.54,-369.687 2047.73,-324 2055.21,-322.374 2063.13,-320.046 2070.44,-317.632"/>
</g>
<!-- ActiveRecord::Base&#45;&gt;ServiceProvider -->
<g id="edge56" class="edge"><title>ActiveRecord::Base&#45;&gt;ServiceProvider</title>
<path fill="none" stroke="black" d="M1458.15,-393.758C1738.87,-387.385 2674.31,-363.622 2971.73,-324 2981.11,-322.75 2991.04,-320.913 3000.52,-318.903"/>
</g>
<!-- ActiveRecord::Base&#45;&gt;ShipArrival -->
<g id="edge57" class="edge"><title>ActiveRecord::Base&#45;&gt;ShipArrival</title>
<path fill="none" stroke="black" d="M1387.21,-378.384C1394.66,-364.211 1404.76,-343.334 1410.73,-324 1426.44,-273.086 1433.63,-210.124 1436.35,-180.267"/>
</g>
<!-- ActiveRecord::Base&#45;&gt;SubCategory -->
<g id="edge59" class="edge"><title>ActiveRecord::Base&#45;&gt;SubCategory</title>
<path fill="none" stroke="black" d="M1345.63,-379.793C1328.81,-372.353 1307.61,-364.193 1287.73,-360 1189.58,-339.307 475.057,-369.614 385.727,-324 355.439,-308.534 334.119,-273.327 323.479,-252.123"/>
</g>
<!-- ActiveRecord::Base&#45;&gt;Supplier -->
<g id="edge64" class="edge"><title>ActiveRecord::Base&#45;&gt;Supplier</title>
<path fill="none" stroke="black" d="M1345.62,-379.858C1328.79,-372.434 1307.6,-364.27 1287.73,-360 1205.62,-342.355 590.681,-384.784 532.727,-324 509.629,-299.775 548.42,-267.365 575.641,-249.088"/>
</g>
<!-- ActiveRecord::Base&#45;&gt;SupplierCategory -->
<g id="edge66" class="edge"><title>ActiveRecord::Base&#45;&gt;SupplierCategory</title>
<path fill="none" stroke="black" d="M1345.17,-379.786C1328.41,-372.441 1307.4,-364.368 1287.73,-360 1032.13,-303.264 959.402,-357.462 699.727,-324 688.859,-322.6 677.301,-320.642 666.302,-318.552"/>
</g>
<!-- ActiveRecord::Base&#45;&gt;SupplierItem -->
<g id="edge67" class="edge"><title>ActiveRecord::Base&#45;&gt;SupplierItem</title>
<path fill="none" stroke="black" d="M1345.64,-379.747C1328.82,-372.295 1307.63,-364.137 1287.73,-360 1230.64,-348.129 283.056,-361.884 238.727,-324 174.364,-268.996 184.337,-152.158 190.775,-108.202"/>
</g>
<!-- ActiveRecord::Base&#45;&gt;SupplierPricingDetail -->
<g id="edge69" class="edge"><title>ActiveRecord::Base&#45;&gt;SupplierPricingDetail</title>
<path fill="none" stroke="black" d="M1458.53,-394.014C1629.54,-389.895 2022.37,-375.011 2144.73,-324 2167.73,-314.409 2168.18,-303.461 2187.73,-288 2203.65,-275.405 2222.03,-261.708 2236.1,-251.393"/>
</g>
<!-- ActiveRecord::Base&#45;&gt;Tool -->
<g id="edge70" class="edge"><title>ActiveRecord::Base&#45;&gt;Tool</title>
<path fill="none" stroke="black" d="M1458.4,-394.085C1780.01,-388.186 2961.09,-363.981 3123.73,-324 3129.1,-322.68 3134.63,-320.525 3139.69,-318.185"/>
</g>
<!-- ActiveRecord::Base&#45;&gt;User -->
<g id="edge73" class="edge"><title>ActiveRecord::Base&#45;&gt;User</title>
<path fill="none" stroke="black" d="M1442.82,-385.65C1511.76,-373.912 1614.36,-352.279 1641.73,-324 1660.38,-304.72 1663.56,-272.109 1663.56,-252.17"/>
</g>
<!-- ActiveRecord::Base&#45;&gt;Vehicle -->
<g id="edge74" class="edge"><title>ActiveRecord::Base&#45;&gt;Vehicle</title>
<path fill="none" stroke="black" d="M1345.27,-379.826C1324.34,-367.766 1298.85,-348.937 1286.73,-324 1263.23,-275.663 1288.38,-210.391 1302.91,-179.947"/>
</g>
<!-- ActiveRecord::Base&#45;&gt;Vessel -->
<g id="edge76" class="edge"><title>ActiveRecord::Base&#45;&gt;Vessel</title>
<path fill="none" stroke="black" d="M1343.69,-380.098C1327.1,-373.101 1306.67,-365.236 1287.73,-360 1193.08,-333.837 1153.45,-375.324 1069.73,-324 1024.14,-296.055 989.351,-261.928 1016.73,-216 1031.48,-191.244 1062.26,-177.351 1085.41,-170.062"/>
</g>
<!-- ActiveRecord::Base&#45;&gt;VesselClass -->
<g id="edge80" class="edge"><title>ActiveRecord::Base&#45;&gt;VesselClass</title>
<path fill="none" stroke="black" d="M1339.66,-380.396C1323.64,-374.063 1304.79,-366.641 1287.73,-360 1252.09,-346.129 1211.19,-330.45 1183.22,-319.767"/>
</g>
<!-- ActiveRecord::Base&#45;&gt;VesselType -->
<g id="edge82" class="edge"><title>ActiveRecord::Base&#45;&gt;VesselType</title>
<path fill="none" stroke="black" d="M1343.23,-380.048C1326.7,-373.124 1306.47,-365.335 1287.73,-360 1201.28,-335.391 1151.19,-388.624 1088.73,-324 1070.39,-305.026 1070.59,-272.317 1072.86,-252.276"/>
</g>
</g>
</svg>
